<?xml version="1.0" encoding="UTF-8" standalone="no"?>
<!-- Created with Inkscape (http://www.inkscape.org/) -->

<svg
   width="120.65696mm"
   height="140.76646mm"
   viewBox="0 0 120.65696 140.76646"
   version="1.1"
   id="svg5"
   xml:space="preserve"
   xmlns="http://www.w3.org/2000/svg"><defs
     id="defs2"><clipPath
       id="clipPath3083"><path
         style="display:none;fill:#00ff0f;fill-opacity:1;stroke-width:2.41;stroke-linejoin:bevel"
         d="m -83.176917,144.90707 10.054751,2e-5 v -10.05476 h 10.054749 v -10.05475 h 20.1095 v 30.16424 h 10.054741 v 10.05475 h 10.05475 v 20.10948 h -20.109541 l 1.1e-5,-10.05475 h -10.054741 v -10.05475 h -30.16422 z"
         id="path3085" /><path
         id="lpe_path-effect3087"
         style="fill:#00ff0f;fill-opacity:1;stroke-width:2.41;stroke-linejoin:bevel"
         class="powerclip"
         d="M -138.00443,109.74282 H -7.347458 V 260.50928 H -138.00443 Z m 54.827513,35.16425 v 20.10948 h 30.16422 v 10.05475 h 10.054741 l -1.1e-5,10.05475 h 20.109541 v -20.10948 h -10.05475 v -10.05475 h -10.054741 v -30.16424 h -20.1095 v 10.05475 h -10.054749 v 10.05476 z" /></clipPath></defs><g
     id="layer1"
     transform="translate(-41.890222,-96.636121)"><path
       style="fill:#ffffff;fill-opacity:1;stroke-width:2.41;stroke-linejoin:bevel"
       d="m -133.00443,235.39977 h 10.05475 v -10.05475 h 10.05474 v -10.05474 h 10.05475 v -10.05475 h 10.054744 l 8e-6,-10.05475 h 10.054741 v -10.05475 h 10.054749 v -10.05475 h -10.054749 v -10.05475 h -10.054749 l 8e-6,-20.10948 h 10.054741 v -10.05473 h 10.054749 v -10.05475 h 10.05475 v -10.05475 h 20.1095 v 10.05475 h 10.05474 v 20.1095 l 10.05475,-1e-5 v 20.10949 l 10.05475,-2e-5 v 20.1095 h -10.05479 v 10.05475 h -20.1095 v -10.05475 h -10.05473 v 10.05475 h -10.05472 l -2e-5,10.05475 h -10.05473 v 10.05475 h -10.054749 v 10.05474 h -10.054749 v 10.05475 h -10.054744 v 10.05476 h -10.05475 v 10.05475 h -20.10949 z"
       id="path3075"
       clip-path="url(#clipPath3083)"
       transform="translate(174.89465,-18.106699)" /></g></svg>
