<svg width="242.69" height="231.707" viewBox="0 0 64.212 61.306" xmlns="http://www.w3.org/2000/svg"><path style="fill:#002654;fill-opacity:1;stroke:none;stroke-width:.264999;stroke-linecap:square;stroke-linejoin:bevel" d="M64.452 108.541a32.761 32.761 0 0 0-16.586 28.481 32.761 32.761 0 0 0 32.762 32.761 32.761 32.761 0 0 0 29.188-17.926 32.798 32.798 0 0 1-16.086 4.23 32.798 32.798 0 0 1-32.798-32.799 32.798 32.798 0 0 1 3.52-14.747z" transform="translate(-47.866 -108.478)"/><path style="fill:#CE1126;stroke:none;stroke-width:.264999;stroke-linecap:square;stroke-linejoin:bevel" d="m96.205 127.177-9.588-.625-5.951 7.544-2.368-9.313-9.014-3.328 8.125-5.13.38-9.601 7.39 6.142 9.248-2.606-3.558 8.926z" transform="scale(.5315) rotate(45 161.33 109.495)"/><path style="fill:#CE1126;stroke:none;stroke-width:.264999;stroke-linecap:square;stroke-linejoin:bevel" d="m96.205 127.177-9.588-.625-5.951 7.544-2.368-9.313-9.014-3.328 8.125-5.13.38-9.601 7.39 6.142 9.248-2.606-3.558 8.926z" transform="scale(.5315) rotate(45 174.9 44.618)"/><path style="fill:#CE1126;stroke:none;stroke-width:.264999;stroke-linecap:square;stroke-linejoin:bevel" d="m96.205 127.177-9.588-.625-5.951 7.544-2.368-9.313-9.014-3.328 8.125-5.13.38-9.601 7.39 6.142 9.248-2.606-3.558 8.926z" transform="scale(.5315) rotate(45 223.495 94.111)"/></svg>