<svg width="31.308" height="31.308" xmlns="http://www.w3.org/2000/svg"><g style="fill:none;fill-rule:evenodd;stroke:none;stroke-width:1"><g style="fill-rule:nonzero"><path style="fill:#000;fill-opacity:1" d="M15.66 0v20.67a4.34 4.34 0 0 1-4.33 4.18 4.4 4.4 0 0 1-2-.5s.069.074 0 0a4.331 4.331 0 0 1-.36-4.51 4.33 4.33 0 0 1 3.86-2.359c.433.005.864.072 1.279.2v-5.26a9.07 9.07 0 0 0-1.28-.1h-.23V11.11a8.993 8.993 0 0 0-1.28-.11 9.49 9.49 0 0 0-5.736 17.065c.094.109.186.22.285.326.104.07.213.132.319.197a9.487 9.487 0 0 0 16.133-6.767V11.34a12.29 12.29 0 0 0 7.18 2.3v-5.15c-.502-.002-1-.055-1.491-.158V8.3l-.01-.002V7.18A7.06 7.06 0 0 1 24.09 6a7.118 7.118 0 0 1-1.77-4.699h-1.382a7.1 7.1 0 0 1-.108-1.3zm-3.061 12.33c0-.01 0 0 0 0z"/></g></g></svg>