<svg viewBox="409.289 277.787 163.279 163.279" width="163.279" height="163.279" xmlns="http://www.w3.org/2000/svg"><g class="style-scope yt-icon"><g class="style-scope yt-icon"><path class="style-scope yt-icon" d="M490.928 302.276s-51.061 0-63.79 3.414a20.448 20.448 0 0 0-14.435 14.436c-3.414 12.728-3.414 39.3-3.414 39.3s0 26.573 3.414 39.301a20.447 20.447 0 0 0 14.435 14.436c12.729 3.414 63.79 3.414 63.79 3.414s51.063 0 63.79-3.414a20.447 20.447 0 0 0 14.436-14.436c3.414-12.728 3.414-39.3 3.414-39.3s-.014-26.573-3.414-39.301a20.447 20.447 0 0 0-14.435-14.436c-12.728-3.414-63.791-3.414-63.791-3.414zm-16.342 32.664 42.418 24.488-42.418 24.49z"/></g></g></svg>