<svg width="97.518" height="97.517" viewBox="0 0 25.802 25.801" xml:space="preserve" xmlns="http://www.w3.org/2000/svg"><g style="fill:#000;fill-opacity:1"><path style="fill:#1877f2;fill-opacity:1;stroke:none;stroke-width:1.00157;stroke-linecap:square;stroke-linejoin:bevel;stroke-dasharray:none" d="M-33.952 99.318z" transform="translate(17.987 20.103) scale(.26458)"/><g transform="translate(52.919 17.377) scale(.26458)" style="fill:#000;fill-opacity:1"><circle style="fill:#00ff0c;fill-opacity:1;stroke:none;stroke-width:1.57353;stroke-linecap:square;stroke-linejoin:bevel;stroke-dasharray:none" cx="-25.601" cy="51.363" r="48.758"/><path style="fill:red;fill-opacity:1;stroke:none;stroke-width:1.00157;stroke-linecap:square;stroke-linejoin:bevel;stroke-dasharray:none" d="M-13.53 21.336C-35.248 21.07-33.954 39.52-33.954 39.52v11.318h-12.072v13.596h12.072v40.857h16.37V64.434h11.158l1.982-13.596h-13.14V39.52c0-6.416 13.14-4.607 13.14-4.607V22.35c-3.406-.666-6.42-.98-9.088-1.014z"/></g><g transform="translate(19.674 -.689) scale(.26458)" style="fill:#000;fill-opacity:1"><circle style="fill:#fff;fill-opacity:1;stroke:none;stroke-width:1.57353;stroke-linecap:square;stroke-linejoin:bevel;stroke-dasharray:none" cx="-25.601" cy="51.363" r="48.758"/><path style="fill:#1877f2;fill-opacity:1;stroke:none;stroke-width:1.57353;stroke-linecap:square;stroke-linejoin:bevel;stroke-dasharray:none" d="M-25.602 2.605A48.758 48.758 0 0 0-74.36 51.363 48.758 48.758 0 0 0-33.952 99.32V64.435h-12.072V50.839h12.072V39.521s-1.294-18.45 20.422-18.184c2.667.033 5.682.348 9.088 1.014v12.562s-13.14-1.808-13.14 4.608v11.318h13.14l-1.982 13.596h-11.159v34.957a48.758 48.758 0 0 0 40.74-48.03 48.758 48.758 0 0 0-48.76-48.757z"/></g></g></svg>