<svg width="97.518" height="96.787" viewBox="0 0 25.802 25.608" xml:space="preserve" xmlns="http://www.w3.org/2000/svg"><g style="fill:#000;fill-opacity:1"><path style="fill:#000;fill-opacity:1;stroke:none;stroke-width:1.57353;stroke-linecap:square;stroke-linejoin:bevel;stroke-dasharray:none" d="M-25.602 2.605A48.758 48.758 0 0 0-74.36 51.363 48.758 48.758 0 0 0-33.952 99.32V64.435h-12.072V50.839h12.072V39.521s-1.294-18.45 20.422-18.184c2.667.033 5.682.348 9.088 1.014v12.562s-13.14-1.808-13.14 4.608v11.318h13.14l-1.982 13.596h-11.159v34.957a48.758 48.758 0 0 0 40.74-48.03 48.758 48.758 0 0 0-48.76-48.757z" transform="translate(19.674 -.69) scale(.26458)"/></g></svg>