<svg width="170.666" height="170.668" viewBox="0 0 45.155 45.156" xml:space="preserve" xmlns="http://www.w3.org/2000/svg"><path style="fill:#000;fill-opacity:1;stroke:none;stroke-width:.264999;stroke-linecap:square;stroke-linejoin:bevel;stroke-dasharray:none" d="M117.736 132.633v2.822h-8.466v2.822h-2.822v7.762h-4.234v16.227h.706v.706h.706v1.41h2.116v4.94h.706v1.41h.705v.707h1.411v1.41h.706v.706h.706v.706h1.41v.705h5.645v2.117h.705v.706h14.112v-.706h.705v-2.117h4.94v-.705h.705v-.706h1.411v-.706h.705v-1.41l2.117.006v-.706h.705v-1.416h.706v-4.94h2.117v-1.41h.705v-.706h.706v-16.228h-4.234v-7.761h-3.527v-2.822h-7.761v2.822h2.116v2.822h2.117v1.411h2.117v2.822h1.41v.706h2.118v7.76h-2.117v3.529h1.41v3.528h.707v.705h.705v.705h.705v5.645h-3.527v4.233h-7.761v4.234h-3.528v-1.412h.705v-2.116h.706v-.706h2.117v-4.233h-2.117v-2.822h-4.94v-2.823h-7.055v2.117h-2.116v.705h2.822v5.645h2.822v1.411h2.822v.706h.706v1.411h1.411v2.117h-7.761v-4.234h-8.467v-4.233h-2.822v-7.761h2.822v1.411h2.823v1.41h2.116v-1.41h-1.41v-2.117h-1.412v-.705h-2.116v-2.823h1.41v-.705h2.117v.705h.706v.706h.705V153.8h2.117v-4.234h3.528v-4.938h.705v-1.412h-.705v-.705h-.706V141.1h-.705v-1.411h.705v-2.117h1.411v2.117h2.816v-2.823h.712v-1.41h7.056v-2.823zm3.528 11.994v1.412h2.117v-.706h-.706v-.706zm-5.644 19.756v-1.411h-.706v1.41z" transform="translate(-102.214 -132.633)"/></svg>