<svg width="170.667" height="170.667" viewBox="0 0 45.156 45.156" xml:space="preserve" xmlns="http://www.w3.org/2000/svg"><path style="fill:#002546;fill-opacity:1;stroke:none;stroke-width:.264999;stroke-linecap:square;stroke-linejoin:bevel;stroke-dasharray:none" d="M80.707 95.236v16.228h.705v.705h.706v1.411h2.117v4.94h.705v1.41h.706v.706h1.41v1.411h.706v.706h.706v.705h1.411v.706h5.645v2.116h.705v.706h14.111v-.706h.706v-2.116h4.939v-.706h.705v-.705h1.411v-.706h.706v-1.411l2.116.006v-.706h.706v-1.416h.706v-4.94h2.116v-1.41h.706v-.706h.705V95.236h-4.233v-7.761h-3.528v-2.823h-7.76V81.83H96.228v2.822h-8.467v2.823H84.94v7.76z" transform="translate(-80.707 -81.83)"/><path style="fill:#000;fill-opacity:1;stroke:none;stroke-width:.264999;stroke-linecap:square;stroke-linejoin:bevel;stroke-dasharray:none" d="M95.626 156.163h2.822v2.822h-2.822zm0-2.822h2.822v2.822h-2.822z" transform="translate(-57.526 -145.58)"/><path style="fill:#000;fill-opacity:1;stroke:none;stroke-width:.264999;stroke-linecap:square;stroke-linejoin:bevel;stroke-dasharray:none" d="M95.626 151.197h2.822v2.822h-2.822zm-33.867 22.605h2.822v2.822h-2.822zm0 2.822h2.822v2.822h-2.822zm29.634 5.645h2.822v2.822h-2.822zm3.527-4.234h2.822v2.822H94.92zm-2.822 1.412h2.822v2.822h-2.822z" transform="translate(-57.526 -145.58)"/><path style="fill:#000;fill-opacity:1;stroke:none;stroke-width:.397499;stroke-linecap:square;stroke-linejoin:bevel;stroke-dasharray:none" d="M57.526 158.985h4.233v4.233h-4.233zm0 4.234h4.233v4.233h-4.233zm0 4.233h4.233v4.233h-4.233zm7.055 13.406h4.233v4.233h-4.233zm4.234 0h4.233v4.233h-4.233zm4.233 4.233h4.233v4.233h-4.233zm4.233 0h4.233v4.233h-4.233zm5.645 0h4.233v4.233h-4.233zm4.233-4.233h4.233v4.233h-4.233z" transform="translate(-57.526 -145.58)"/><path style="fill:#000;fill-opacity:1;stroke:none;stroke-width:.06625;stroke-linecap:square;stroke-linejoin:bevel;stroke-dasharray:none" d="M94.215 184.386h.706v.706h-.706zm3.528-4.234h.706v.706h-.706z" transform="translate(-57.526 -145.58)"/><path style="fill:#000;fill-opacity:1;stroke:none;stroke-width:.06625;stroke-linecap:square;stroke-linejoin:bevel;stroke-dasharray:none" d="M97.743 179.447h.706v.706h-.706zm0-.706h.706v.706h-.706z" transform="translate(-57.526 -145.58)"/><path style="fill:#000;fill-opacity:1;stroke:none;stroke-width:.06625;stroke-linecap:square;stroke-linejoin:bevel;stroke-dasharray:none" d="M97.743 178.039h.706v.706h-.706zm0-3.531h.706v.706h-.706zm0-.706h.706v.706h-.706zm-3.528 9.172h.706v.706h-.706z" transform="translate(-57.526 -145.58)"/><path style="fill:#000;fill-opacity:1;stroke:none;stroke-width:.06625;stroke-linecap:square;stroke-linejoin:bevel;stroke-dasharray:none" d="M94.215 182.269h.706v.706h-.706zm0 1.411h.706v.706h-.706z" transform="translate(-57.526 -145.58)"/><path style="fill:#000;fill-opacity:1;stroke:none;stroke-width:.1325;stroke-linecap:square;stroke-linejoin:bevel;stroke-dasharray:none" d="M61.759 179.447h1.411v1.411h-1.411zm1.411 0h1.411v1.411H63.17zm18.345 8.466h1.411v1.411h-1.411z" transform="translate(-57.526 -145.58)"/><path style="fill:#000;fill-opacity:1;stroke:none;stroke-width:.19875;stroke-linecap:square;stroke-linejoin:bevel;stroke-dasharray:none" d="M57.526 171.685h2.117v2.117h-2.117zm2.117 0h2.117v2.117h-2.117z" transform="translate(-57.526 -145.58)"/><path style="fill:#000;fill-opacity:1;stroke:none;stroke-width:.264999;stroke-linecap:square;stroke-linejoin:bevel;stroke-dasharray:none" d="M95.626 175.213h2.822v2.822h-2.822z" transform="translate(-57.526 -145.58)"/><path style="fill:#000;fill-opacity:1;stroke:none;stroke-width:.397499;stroke-linecap:square;stroke-linejoin:bevel;stroke-dasharray:none" d="M98.448 158.985h4.233v4.233h-4.233zm0 4.234h4.233v4.233h-4.233zm0 4.233h4.233v4.233h-4.233z" transform="translate(-57.526 -145.58)"/><path style="fill:#000;fill-opacity:1;stroke:none;stroke-width:.19875;stroke-linecap:square;stroke-linejoin:bevel;stroke-dasharray:none" d="M98.448 171.685h2.117v2.117h-2.117zm2.117 0h2.117v2.117h-2.117z" transform="translate(-57.526 -145.58)"/><path style="fill:#004d95;fill-opacity:1;stroke:none;stroke-width:.264999;stroke-linecap:square;stroke-linejoin:bevel;stroke-dasharray:none" d="M80.707 95.236v14.816h4.233v7.056h2.822v4.233h8.467v4.234h14.111v-4.234h7.761v-4.233h3.528v-7.056h4.233V95.236h-4.233v-7.761h-3.528v-2.823h-7.76V81.83H96.228v2.822h-8.467v2.823H84.94v7.76z" transform="translate(-80.707 -81.83)"/><path style="fill:#0c73d2;fill-opacity:1;stroke:none;stroke-width:.264999;stroke-linecap:square;stroke-linejoin:bevel;stroke-dasharray:none" d="M96.23 84.652h14.11v2.823h7.761v7.76h3.528v14.817h-3.528v7.056h-7.76v4.233H96.228v-4.233h-8.467v-7.055H84.94V95.235h2.822v-7.761h8.467z" transform="translate(-80.707 -81.83)"/><path style="fill:#268dec;fill-opacity:1;stroke:none;stroke-width:.264999;stroke-linecap:square;stroke-linejoin:bevel;stroke-dasharray:none" d="M87.762 110.071v4.215l4.234.018v2.804h18.344v-2.822h4.233v-4.234h3.528V87.476h-7.76v-2.823H96.228v2.823h-8.467v7.76H84.94v14.817z" transform="translate(-80.707 -81.83)"/><path style="fill:#3ca1fe;fill-opacity:1;stroke:none;stroke-width:.264999;stroke-linecap:square;stroke-linejoin:bevel;stroke-dasharray:none" d="M107.518 114.286v-4.233h2.822v-3.528h4.234v-11.29h-4.234v-7.76H96.23v2.822h-2.823v5.644h-2.822v8.462h-2.823v5.645h8.467v4.238z" transform="translate(-80.707 -81.83)"/><path style="fill:#4aa7fe;fill-opacity:1;stroke:none;stroke-width:.264999;stroke-linecap:square;stroke-linejoin:bevel;stroke-dasharray:none" d="M107.518 87.475h2.822v7.76h-2.822zm0 11.289h2.822v7.76h-2.822v3.528h-4.233v1.412h-7.056v-4.94h7.056v-3.527h4.233z" transform="translate(-80.707 -81.83)"/><path style="fill:#2d94f3;fill-opacity:1;stroke:none;stroke-width:.264999;stroke-linecap:square;stroke-linejoin:bevel;stroke-dasharray:none" d="M110.34 110.052h4.233v-3.527h-4.233zm-2.822 0v4.234h2.822v-4.234zm7.055-14.816h3.528v3.528h-3.527z" transform="translate(-80.707 -81.83)"/><path style="fill:#4aa7fe;fill-opacity:1;stroke:none;stroke-width:.264999;stroke-linecap:square;stroke-linejoin:bevel;stroke-dasharray:none" d="M94.818 87.475h8.467v11.289H99.05v4.233h-4.233v-4.233h-4.233V94.53h1.41v-2.822h2.823z" transform="translate(-80.707 -81.83)"/><path style="fill:#6dc20f;fill-opacity:1;stroke:none;stroke-width:.264999;stroke-linecap:square;stroke-linejoin:bevel;stroke-dasharray:none" d="M87.762 84.653h15.523v1.41h-.712v2.823h-2.816v-2.117h-1.411v2.117h-.706v1.411h.706v1.411h.705v.706h.706v1.41h1.41v.706h.706v.706h-2.116v-1.411h-.706v2.116h-1.41v1.412h-.706v.705h-.706v.706h-.705v4.233h-2.117v2.822H92.7v-.705h-.705v-.706h-2.117v.706h-1.411v2.822h2.117v.705h1.41v2.117h1.412v1.411h.705v1.411h2.117v-2.116h7.056v2.822h4.939v2.822h2.116v4.233h-2.116v.706h-.706v2.117h-.706v1.41h-2.822v-2.116h-1.41v-1.411h-.706v-.706H99.05v-1.41h-2.82v-5.645h-2.822v-.706H92.7v-1.41h-2.116v-1.412h-2.823v-1.411H84.94V87.475h2.822z" transform="translate(-80.707 -81.83)"/><path style="fill:#56b00e;fill-opacity:1;stroke:none;stroke-width:.264999;stroke-linecap:square;stroke-linejoin:bevel;stroke-dasharray:none" d="M96.23 84.653h7.055v1.41h-.712v2.823h-2.816v-2.117h-1.411v.706h-6.174v4.41h-4.41v6.879H84.94v-11.29h2.822v-2.821z" transform="translate(-80.707 -81.83)"/><path style="fill:#295300;fill-opacity:1;stroke:none;stroke-width:.264999;stroke-linecap:square;stroke-linejoin:bevel;stroke-dasharray:none" d="M84.94 95.236h2.822v-7.761h8.467v-2.823h-8.467v2.823H84.94z" transform="translate(-80.707 -81.83)"/><path style="fill:#56b00e;fill-opacity:1;stroke:none;stroke-width:.264999;stroke-linecap:square;stroke-linejoin:bevel;stroke-dasharray:none" d="M108.224 114.286v2.822h2.116v4.233h-2.117v.706h-.705v2.117h-.706v1.41h-2.822v-2.116h-1.411v-1.411h-.705v-.706H99.05v-1.41h-2.82v-5.645h-2.822v-.706H92.7v-1.41h-2.116v-1.412h-2.823v-.706h4.234v.706h1.41v1.411h.706v1.411h2.117v.706z" transform="translate(-80.707 -81.83)"/><path style="fill:#437f00;fill-opacity:1;stroke:none;stroke-width:.264999;stroke-linecap:square;stroke-linejoin:bevel;stroke-dasharray:none" d="M96.23 117.108h14.11v4.233h-2.117v.706h-.705v2.117h-.706v1.41h-2.822v-2.116h-1.411v-1.411h-.705v-.706H99.05v-1.41h-2.82z" transform="translate(-80.707 -81.83)"/><path style="fill:#295300;fill-opacity:1;stroke:none;stroke-width:.264999;stroke-linecap:square;stroke-linejoin:bevel;stroke-dasharray:none" d="M101.874 121.341h6.35v.706h-.706v2.117h-.706v1.41h-2.822v-2.116h-1.411v-1.411h-.705z" transform="translate(-80.707 -81.83)"/><path style="fill:#fefefe;fill-opacity:1;stroke:none;stroke-width:.264999;stroke-linecap:square;stroke-linejoin:bevel;stroke-dasharray:none" d="M92.172 91.884h7.056v7.056h-7.056z" transform="translate(-80.707 -81.83)"/><g><path style="fill:#437f00;fill-opacity:1;stroke:none;stroke-width:.264999;stroke-linecap:square;stroke-linejoin:bevel;stroke-dasharray:none" d="M110.34 84.652h7.761v2.823h3.528v7.76h4.233v14.817h-4.233v1.412h-.705v-.706h-.706v-.705h-.706v-3.528h-1.41v-3.528h2.116v-7.761h-2.117v-.706h-1.41v-2.822h-2.117v-1.411h-2.117v-2.822h-2.117z" transform="translate(-80.707 -81.83)"/><path style="fill:#295300;fill-opacity:1;stroke:none;stroke-width:.264999;stroke-linecap:square;stroke-linejoin:bevel;stroke-dasharray:none" d="M125.862 110.052V95.236h-4.233v-7.789l-3.528.028v-2.823h-7.76v2.823h7.76v7.76h3.528v14.817z" transform="translate(-80.707 -81.83)"/><path style="fill:#122d2e;fill-opacity:1;stroke:none;stroke-width:.264999;stroke-linecap:square;stroke-linejoin:bevel;stroke-dasharray:none" d="M121.63 110.052h4.232v1.411h-.705v.706h-.706v1.41h-2.116v-2.116h-.706z" transform="translate(-80.707 -81.83)"/></g></svg>