<svg version="1.1" x="0" y="0" xml:space="preserve" id="svg22" width="171" height="171" xmlns="http://www.w3.org/2000/svg"><g id="Artwork" transform="translate(-85.4 -85.4)"><g id="g8" style="fill:#000;fill-opacity:1"><path id="circle4" d="M170.9 85.4a85.5 85.5 0 0 0-85.5 85.5 85.5 85.5 0 0 0 85.5 85.5 85.5 85.5 0 0 0 85.5-85.5 85.5 85.5 0 0 0-85.5-85.5zm35.7 33.8c4.9 0 8.9 4 8.9 8.9s-4 8.9-8.9 8.9c-4.8 0-8.7-3.8-8.9-8.5l-18.5-3.9-5.7 26.7c13 .5 24.8 4.5 33.3 10.6 2.2-2.2 5.2-3.5 8.6-3.5 6.9 0 12.5 5.6 12.5 12.5 0 5.1-3.1 9.5-7.2 11.5.2 1.2.3 2.4.3 3.7 0 19.2-22.3 34.7-49.9 34.7-27.6 0-49.9-15.5-49.9-34.7 0-1.3.1-2.6.3-3.8-4.4-2-7.4-6.3-7.4-11.4 0-6.9 5.6-12.5 12.5-12.5 3.3 0 6.4 1.4 8.6 3.5 8.6-6.3 20.5-10.2 33.8-10.6l6.3-29.8c.2-.6.5-1.1 1-1.4.5-.3 1.1-.4 1.7-.3l20.7 4.4c1.4-3 4.4-5 7.9-5zm-55.3 51.7c-4.9 0-8.9 4-8.9 8.9s4 8.9 8.9 8.9 8.9-4 8.9-8.9-4-8.9-8.9-8.9zm39.2 0c-4.9 0-8.9 4-8.9 8.9s4 8.9 8.9 8.9 8.9-4 8.9-8.9-4-8.9-8.9-8.9zm-38.95 28.426c-.6 0-1.2.224-1.65.674-.9.9-.9 2.4 0 3.3 6 6 17.7 6.5 21.1 6.5 3.4 0 15-.4 21.1-6.5.9-.9.9-2.3.2-3.3-.9-.9-2.4-.9-3.3 0-3.9 3.8-12 5.2-17.9 5.2-5.9 0-14.1-1.4-17.9-5.2a2.326 2.326 0 0 0-1.65-.674z" style="fill:#000;fill-opacity:1"/></g></g></svg>