<svg width="31.308" height="31.308" xmlns="http://www.w3.org/2000/svg"><g style="fill:none;fill-rule:evenodd;stroke:none;stroke-width:1"><g style="fill-rule:nonzero"><path d="M10.79 12.33v-1.22A9.003 9.003 0 0 0 9.51 11a9.49 9.49 0 0 0-5.44 17.28 9.48 9.48 0 0 1 6.72-15.95z" style="fill:#25f4ee" transform="translate(1.809)"/><path d="M11.02 26.15A4.34 4.34 0 0 0 15.35 22V1.31h3.78A7.09 7.09 0 0 1 19.02 0h-5.17v20.67a4.34 4.34 0 0 1-4.33 4.18 4.4 4.4 0 0 1-2-.5 4.34 4.34 0 0 0 3.5 1.8zM26.19 8.33V7.18A7.06 7.06 0 0 1 22.28 6a7.17 7.17 0 0 0 3.91 2.33z" style="fill:#25f4ee" transform="translate(1.809)"/><path d="M22.28 6a7.12 7.12 0 0 1-1.77-4.7h-1.38A7.16 7.16 0 0 0 22.28 6zM9.51 16.17a4.34 4.34 0 0 0-2 8.18 4.33 4.33 0 0 1 3.51-6.87 4.56 4.56 0 0 1 1.28.2v-5.26a9.08 9.08 0 0 0-1.28-.1h-.23v4a4.45 4.45 0 0 0-1.28-.15z" style="fill:#fe2c55" transform="translate(1.809)"/><path d="M26.19 8.33v4A12.27 12.27 0 0 1 19.02 10v10.51A9.51 9.51 0 0 1 9.51 30a9.41 9.41 0 0 1-5.44-1.72 9.49 9.49 0 0 0 16.44-6.46V11.34a12.29 12.29 0 0 0 7.18 2.3V8.49a7.33 7.33 0 0 1-1.5-.16z" style="fill:#fe2c55" transform="translate(1.809)"/><path d="M19.02 20.51V10a12.27 12.27 0 0 0 7.18 2.3v-4A7.17 7.17 0 0 1 22.28 6a7.16 7.16 0 0 1-3.15-4.7h-3.78V22a4.34 4.34 0 0 1-7.85 2.37 4.34 4.34 0 0 1 2-8.18c.435.004.866.071 1.28.2v-4a9.48 9.48 0 0 0-6.72 16A9.41 9.41 0 0 0 9.51 30a9.51 9.51 0 0 0 9.51-9.49z" style="fill:#000" transform="translate(1.809)"/></g></g></svg>