<svg viewBox="409.289 277.787 163.279 163.279" width="163.279" height="163.279" xmlns="http://www.w3.org/2000/svg"><g class="style-scope yt-icon"><g class="style-scope yt-icon"><path d="M569.154 320.126a20.447 20.447 0 0 0-14.436-14.436c-12.728-3.414-63.79-3.414-63.79-3.414s-51.061 0-63.79 3.414a20.447 20.447 0 0 0-14.435 14.436c-3.414 12.728-3.414 39.3-3.414 39.3s0 26.573 3.414 39.302a20.446 20.446 0 0 0 14.435 14.435c12.729 3.414 63.79 3.414 63.79 3.414s51.062 0 63.79-3.414a20.446 20.446 0 0 0 14.436-14.435c3.414-12.729 3.414-39.301 3.414-39.301s-.014-26.573-3.414-39.301z" class="style-scope yt-icon" fill="red"/><path d="m474.585 383.918 42.42-24.49-42.42-24.489z" class="style-scope yt-icon" fill="#fff"/></g></g></svg>